<svg width="62" height="18" viewBox="0 0 62 18" fill="none" xmlns="http://www.w3.org/2000/svg">
<path d="M6.613 13.172L0.291 6.676L6.613 0.179999H11.717L5.395 6.676L11.717 13.172H6.613ZM46.4134 0.248V2.96H41.9494V17H38.5894V2.96H34.1254V0.248H46.4134Z" fill="#43E0DB"/>
<path d="M15.7755 8.6C15.7755 6.952 16.1435 5.48 16.8795 4.184C17.6315 2.872 18.6475 1.856 19.9275 1.136C21.2235 0.4 22.6715 0.0319996 24.2715 0.0319996C26.1435 0.0319996 27.7835 0.512 29.1915 1.472C30.5995 2.432 31.5835 3.76 32.1435 5.456H28.2795C27.8955 4.656 27.3515 4.056 26.6475 3.656C25.9595 3.256 25.1595 3.056 24.2475 3.056C23.2715 3.056 22.3995 3.288 21.6315 3.752C20.8795 4.2 20.2875 4.84 19.8555 5.672C19.4395 6.504 19.2315 7.48 19.2315 8.6C19.2315 9.704 19.4395 10.68 19.8555 11.528C20.2875 12.36 20.8795 13.008 21.6315 13.472C22.3995 13.92 23.2715 14.144 24.2475 14.144C25.1595 14.144 25.9595 13.944 26.6475 13.544C27.3515 13.128 27.8955 12.52 28.2795 11.72H32.1435C31.5835 13.432 30.5995 14.768 29.1915 15.728C27.7995 16.672 26.1595 17.144 24.2715 17.144C22.6715 17.144 21.2235 16.784 19.9275 16.064C18.6475 15.328 17.6315 14.312 16.8795 13.016C16.1435 11.72 15.7755 10.248 15.7755 8.6ZM49.79 0.179999H54.923L61.245 6.676L54.923 13.172H49.79L56.141 6.676L49.79 0.179999Z" fill="#C7C7C7"/>
</svg>
