<svg width="32" height="32" viewBox="0 0 32 18" fill="none" xmlns="http://www.w3.org/2000/svg">
<path d="M0.84 8.6C0.84 6.952 1.208 5.48 1.944 4.184C2.696 2.872 3.712 1.856 4.992 1.136C6.288 0.4 7.736 0.0319996 9.336 0.0319996C11.208 0.0319996 12.848 0.512 14.256 1.472C15.664 2.432 16.648 3.76 17.208 5.456H13.344C12.96 4.656 12.416 4.056 11.712 3.656C11.024 3.256 10.224 3.056 9.312 3.056C8.336 3.056 7.464 3.288 6.696 3.752C5.944 4.2 5.352 4.84 4.92 5.672C4.504 6.504 4.296 7.48 4.296 8.6C4.296 9.704 4.504 10.68 4.92 11.528C5.352 12.36 5.944 13.008 6.696 13.472C7.464 13.92 8.336 14.144 9.312 14.144C10.224 14.144 11.024 13.944 11.712 13.544C12.416 13.128 12.96 12.52 13.344 11.72H17.208C16.648 13.432 15.664 14.768 14.256 15.728C12.864 16.672 11.224 17.144 9.336 17.144C7.736 17.144 6.288 16.784 4.992 16.064C3.712 15.328 2.696 14.312 1.944 13.016C1.208 11.72 0.84 10.248 0.84 8.6Z" fill="#D9D9D9"/>
<path d="M31.4779 0.248V2.96H27.0139V17H23.6539V2.96H19.1899V0.248H31.4779Z" fill="#43E0DB"/>
</svg>
